#!OML:ASF X:\für Bonn\!DataBase\2005_08_12_Daniel\c3d\Daniel.ASF
:FULLY-SPECIFIED
:DEGREES
139
root 15.5955 7.56544 -2.11429 -1266.56 178.452 147.161
lowerback 80.3468 -4.5543 12.5016
upperback 9.94963 3.23206 -5.92312
thorax -8.07917 1.83954 -13.2293
lowerneck 8.38833 4.53909 -7.09184
upperneck 9.14204 5.36495 0.432462
head 1.2678 2.39327 1.22929
rclavicle 2.54444e-014 -2.06736e-014
rhumerus -308.614 41.3276 299.936
rradius 35.8481
rwrist 43.1546
rhand -28.7656 732.02
rfingers 7.12502
rthumb -2.12532 702.051
lclavicle 2.54444e-014 -2.06736e-014
lhumerus -328.673 10.6186 -295.336
lradius 28.111
lwrist -12.5858
lhand -62.8858 -753.949
lfingers 7.12502
lthumb -34.8946 -367.369
rfemur -103.066 -41.2526 54.807
rtibia 126.359
rfoot 361.317 39.3693
rtoes 18.3972
lfemur -48.8919 38.4854 -11.1608
ltibia 140.682
lfoot 8.87599 -37.8074
ltoes -1.68016
140
root 15.7674 7.44681 -2.07076 -1266.68 179.898 146.735
lowerback 79.8001 -4.52229 12.8106
upperback 9.98432 3.38101 -5.96323
thorax -8.046 1.89198 -13.4658
lowerneck 8.72049 4.8359 -7.3504
upperneck 9.3005 5.71447 0.104059
head 1.25656 2.54624 1.15395
rclavicle 6.36111e-015 -8.54774e-014
rhumerus -308.932 41.9586 300.258
rradius 35.916
rwrist 42.4941
rhand -27.0814 732.394
rfingers 7.12502
rthumb -0.498696 702.415
lclavicle 6.36111e-015 -8.54774e-014
lhumerus -330.312 9.84982 -295.471
lradius 28.0034
lwrist -12.2304
lhand -63.5691 -754.565
lfingers 7.12502
lthumb -35.5426 -368.138
rfemur -103.184 -42.235 54.6752
rtibia 126.613
rfoot 363.642 40.4189
rtoes 18.7778
lfemur -48.9362 38.4181 -12.1821
ltibia 140.404
lfoot 9.87699 -38.0697
ltoes -2.36417
141
root 15.9354 7.32899 -2.0244 -1266.81 181.402 146.276
lowerback 79.2699 -4.4453 13.1201
upperback 10.0125 3.57547 -5.99958
thorax -8.00609 1.96388 -13.7181
lowerneck 9.18762 5.12582 -7.47119
upperneck 9.36062 6.05006 -0.270225
head 1.1985 2.69937 1.03508
rclavicle 5.725e-014 2.34566e-014
rhumerus -309.366 42.5741 300.523
rradius 36.0535
rwrist 41.8028
rhand -25.376 732.674
rfingers 7.12502
rthumb 1.14842 702.698
lclavicle 5.725e-014 2.34566e-014
lhumerus -331.967 9.27453 -295.368
lradius 28.086
lwrist -12.1383
lhand -64.1431 -755.035
lfingers 7.12502
lthumb -36.0865 -368.74
rfemur -103.197 -43.1808 54.5448
rtibia 126.825
rfoot 366.104 41.3444
rtoes 19.2088
lfemur -48.9038 38.4026 -13.137
ltibia 140.127
lfoot 10.7539 -38.2278
ltoes -2.9576
142
root 16.0985 7.20883 -1.97784 -1266.95 182.929 145.826
lowerback 78.7249 -4.34897 13.3946
upperback 10.0606 3.76082 -6.02157
thorax -7.94721 2.03272 -13.9356
lowerneck 9.75436 5.4173 -7.37188
upperneck 9.35786 6.39764 -0.789101
head 1.11725 2.86665 0.829585
rclavicle 6.36111e-015 -4.33351e-014
rhumerus -309.753 43.1954 300.821
rradius 36.2348
rwrist 41.2049
rhand -23.6405 732.852
rfingers 7.12502
rthumb 2.82453 702.891
lclavicle 6.36111e-015 -4.33351e-014
lhumerus -333.553 9.0372 -294.995
lradius 28.2155
lwrist -12.3076
lhand -64.6209 -755.507
lfingers 7.12502
lthumb -36.5389 -369.325
rfemur -103.216 -44.0324 54.3952
rtibia 127.028
rfoot 368.561 42.121
rtoes 19.618
lfemur -48.9113 38.451 -14.1769
ltibia 139.895
lfoot 11.3202 -38.2446
ltoes -3.78282
143
root 16.2558 7.08584 -1.92855 -1267.09 184.489 145.505
lowerback 78.1212 -4.17753 13.5819
upperback 10.1347 3.94732 -6.04899
thorax -7.8728 2.10603 -14.1298
lowerneck 10.506 5.67782 -6.99728
upperneck 9.29919 6.71378 -1.40803
head 1.00567 3.03011 0.543859
rclavicle -6.36111e-015 -7.15625e-014
rhumerus -309.967 43.8565 301.286
rradius 36.4679
rwrist 40.3979
rhand -21.8283 732.898
rfingers 7.12502
rthumb 4.57455 702.967
lclavicle -6.36111e-015 -7.15625e-014
lhumerus -335.119 8.88682 -294.539
lradius 28.3799
lwrist -12.5882
lhand -65.0387 -755.85
lfingers 7.12502
lthumb -36.9343 -369.769
rfemur -103.321 -44.8452 54.1355
rtibia 127.278
rfoot 371.039 42.7991
rtoes 19.9501
lfemur -48.9269 38.6024 -15.4506
ltibia 139.683
lfoot 11.6024 -38.0712
ltoes -4.45152
144
root 16.4091 6.9616 -1.87869 -1267.24 186.064 145.158
lowerback 77.5118 -4.01487 13.7963
upperback 10.2371 4.14372 -6.0729
thorax -7.75614 2.18985 -14.3326
lowerneck 11.2641 5.92406 -6.58853
upperneck 9.24002 7.01359 -1.95618
head 0.897095 3.18875 0.277383
rclavicle -4.13472e-014 6.36111e-014
rhumerus -310.042 44.4762 301.83
rradius 36.6632
rwrist 39.6028
rhand -20.0821 732.949
rfingers 7.12502
rthumb 6.26051 703.062
lclavicle -4.13472e-014 6.36111e-014
lhumerus -336.61 8.8959 -293.974
lradius 28.5549
lwrist -12.9669
lhand -65.4285 -756.357
lfingers 7.12502
lthumb -37.3029 -370.371
rfemur -103.36 -45.5625 53.8634
rtibia 127.493
rfoot 373.453 43.3501
rtoes 20.2658
lfemur -48.9746 38.7745 -16.7075
ltibia 139.507
lfoot 11.7981 -37.7241
ltoes -4.89244
145
root 16.5577 6.83715 -1.82661 -1267.41 187.662 144.819
lowerback 76.911 -3.81296 13.9698
upperback 10.338 4.35544 -6.06969
thorax -7.63931 2.27737 -14.4929
lowerneck 11.9003 6.17945 -6.26532
upperneck 9.24793 7.32794 -2.38774
head 0.825237 3.35062 0.0659693
rclavicle -4.77083e-014 1.90833e-014
rhumerus -309.962 45.1402 302.472
rradius 36.7836
rwrist 38.8054
rhand -18.4376 732.859
rfingers 7.12502
rthumb 7.84799 703.025
lclavicle -4.77083e-014 1.90833e-014
lhumerus -338.094 8.96125 -293.396
lradius 28.6962
lwrist -13.2998
lhand -65.7727 -757.051
lfingers 7.12502
lthumb -37.6282 -371.151
rfemur -103.36 -46.2193 53.5494
rtibia 127.702
rfoot 375.976 43.7376
rtoes 20.711
lfemur -49.0563 38.9951 -18.0212
ltibia 139.338
lfoot 11.8312 -37.2457
ltoes -5.33204
